<?xml version="1.0"?>
<svg xmlns="http://www.w3.org/2000/svg" xmlns:xlink="http://www.w3.org/1999/xlink" version="1.1" id="Layer_1" x="0px" y="0px" viewBox="0 0 512 512" style="enable-background:new 0 0 512 512;" xml:space="preserve" width="512px" height="512px" class=""><g><g>
	<g>
		<g>
			<path d="M502.813,116.979C436.833,55.302,349.188,21.333,256,21.333S75.167,55.302,9.188,116.979     C3.271,122.531,0,129.969,0,137.948c0,7.979,3.271,15.417,9.188,20.969l49.167,45.979c11.813,11.042,31,11,42.771,0     c16.396-15.365,35.104-28.031,55.479-37.615c10.458-4.781,17.208-15.104,17.083-24.729L181,93.573     c53.063-14.979,97.458-15.01,150.021-0.01l7.167,47.417c0,11.188,6.458,21.271,16.979,26.375     c20.479,9.656,39.167,22.323,55.563,37.667c5.896,5.51,13.646,8.271,21.396,8.271c7.729,0,15.479-2.76,21.375-8.271     l49.313-46.104c5.917-5.552,9.188-12.99,9.188-20.969C512,129.969,508.729,122.531,502.813,116.979z" data-original="#000000" class="active-path" data-old_color="#2098d1" fill="#2098d1"/>
			<path d="M412.083,234.021c-6.438-12.115-17.146-21.177-30.188-25.531l-29.083-9.688c-8.958-2.979-16.083-9.719-19.604-18.469     l-4.229-10.583c-3.313-8.26-9.688-14.583-17.958-17.781c-8.417-3.281-17.979-2.844-26.167,1.167     c-18.833,9.104-38.875,9.115-57.708-0.01c-8.229-3.979-17.792-4.385-26.167-1.156c-8.271,3.198-14.646,9.521-17.958,17.792     l-4.229,10.563c-3.521,8.76-10.667,15.5-19.604,18.479l-29.083,9.698c-13.042,4.344-23.75,13.406-30.188,25.5L27.604,369.573     c-4.104,7.708-6.271,16.385-6.271,25.094V448c0,23.531,19.146,42.667,42.667,42.667h384c23.521,0,42.667-19.135,42.667-42.667     v-53.333c0-8.708-2.167-17.385-6.271-25.104L412.083,234.021z M256,405.333c-77.75,0-138.667-37.479-138.667-85.333     S178.25,234.667,256,234.667S394.667,272.146,394.667,320S333.75,405.333,256,405.333z" data-original="#000000" class="active-path" data-old_color="#2098d1" fill="#2098d1"/>
			<path d="M170.667,304c-12.354,0-21.333,6.729-21.333,16s8.979,16,21.333,16c12.354,0,21.333-6.729,21.333-16     S183.021,304,170.667,304z" data-original="#000000" class="active-path" data-old_color="#2098d1" fill="#2098d1"/>
			<path d="M224,341.333c-12.354,0-21.333,6.729-21.333,16c0,9.271,8.979,16,21.333,16s21.333-6.729,21.333-16     C245.333,348.063,236.354,341.333,224,341.333z" data-original="#000000" class="active-path" data-old_color="#2098d1" fill="#2098d1"/>
			<path d="M288,341.333c-12.354,0-21.333,6.729-21.333,16c0,9.271,8.979,16,21.333,16s21.333-6.729,21.333-16     C309.333,348.063,300.354,341.333,288,341.333z" data-original="#000000" class="active-path" data-old_color="#2098d1" fill="#2098d1"/>
			<path d="M224,266.667c-12.354,0-21.333,6.729-21.333,16c0,9.271,8.979,16,21.333,16s21.333-6.729,21.333-16     C245.333,273.396,236.354,266.667,224,266.667z" data-original="#000000" class="active-path" data-old_color="#2098d1" fill="#2098d1"/>
			<path d="M288,266.667c-12.354,0-21.333,6.729-21.333,16c0,9.271,8.979,16,21.333,16s21.333-6.729,21.333-16     C309.333,273.396,300.354,266.667,288,266.667z" data-original="#000000" class="active-path" data-old_color="#2098d1" fill="#2098d1"/>
			<path d="M341.333,304C328.979,304,320,310.729,320,320s8.979,16,21.333,16c12.354,0,21.333-6.729,21.333-16     S353.688,304,341.333,304z" data-original="#000000" class="active-path" data-old_color="#2098d1" fill="#2098d1"/>
		</g>
	</g>
</g></g> </svg>
